<?xml version="1.0" encoding="UTF-8"?>
<svg id="Layer_1" data-name="Layer 1" xmlns="http://www.w3.org/2000/svg" viewBox="0 0 32 32">
  <defs>
    <style>
      .cls-1 {
        fill: #fff;
      }

      .cls-2 {
        fill: #023d0d;
      }
    </style>
  </defs>
  <rect class="cls-1" x="0" y="-.5" width="32" height="33"/>
  <g>
    <polygon class="cls-2" points="15.38 20.33 15.74 19.88 17.57 17.61 12.98 17.61 11.15 19.88 12.25 19.88 11.89 20.33 11.42 20.91 8.68 20.91 9.16 20.33 9.51 19.88 11.35 17.61 11.7 17.17 16 11.83 17.37 13.53 14.91 16.58 18.4 16.58 19.11 15.7 20.86 13.53 19.11 11.36 17.74 9.66 16 7.5 14.26 9.67 8.21 17.17 7.86 17.61 6.02 19.88 5.67 20.33 5.19 20.91 3.64 22.84 13.36 22.84 14.91 20.91 15.38 20.33"/>
    <polygon class="cls-2" points="26.81 20.91 25.98 19.88 24.26 17.76 24.14 17.61 23.9 17.31 23.66 17.61 22.16 19.48 21.83 19.88 22.49 19.88 22.84 20.33 23.32 20.91 19.69 20.91 20.17 20.33 20.52 19.88 21.5 18.66 21.51 18.67 22.37 17.61 22.72 17.17 23.26 16.51 23.25 16.5 21.5 14.33 19.76 16.5 19.22 17.17 18.87 17.61 17.03 19.88 16.68 20.33 16.2 20.91 14.65 22.84 28.36 22.84 26.81 20.91"/>
  </g>
</svg>