<svg width="135" height="89" viewBox="0 0 135 89" fill="none" xmlns="http://www.w3.org/2000/svg">
    <path d="M94.0292 35.3844L84.5028 47.8322L80.6247 52.8986H61.5719L74.9764 35.3844L67.5 25.6146L44.0216 56.2948L42.0778 58.8331L32.069 71.9128L30.1251 74.4511L27.5349 77.8372H42.4878L45.078 74.4511L47.0218 71.9128H40.9901L50.9988 58.8331H76.0834L66.0747 71.9128L64.1308 74.4511L61.5406 77.8372L53.0585 88.9193H0L8.48212 77.8372L11.0723 74.4511L13.0162 71.9128L23.0274 58.8331L24.9688 56.2948L57.9736 13.1694L67.5 0.72168L77.0264 13.1669L84.5028 22.9367L94.0292 35.3844Z" fill="#023D0D"/>
    <path d="M135 88.9185H60.1321L68.6143 77.8364L71.2069 74.4503L73.1483 71.912L83.1595 58.8323L85.101 56.294L88.0409 52.4536L97.5673 40.0059L107.091 52.4536L107.132 52.5044L104.231 56.294L102.289 58.8323L97.6083 64.9495L97.5673 64.8988L92.2012 71.912L90.2573 74.4503L87.6671 77.8364H107.468L104.877 74.4503L102.933 71.912H99.3544L101.144 69.5718L109.363 58.8323L110.668 57.1266L111.973 58.8323L112.636 59.6978L121.984 71.912L126.518 77.8364L135 88.9185Z" fill="#023D0D"/>
</svg>
